<svg width="86" height="86" viewBox="0 0 86 86" fill="none" xmlns="http://www.w3.org/2000/svg">
<g id="clock">
<path id="Path 7197" d="M42.9996 1.11967e-08C34.4951 0.000194079 26.1817 2.52224 19.1106 7.2472C12.0395 11.9722 6.5283 18.6878 3.27392 26.545C0.0195372 34.4021 -0.831856 43.0479 0.8274 51.3889C2.48666 59.7299 6.58204 67.3916 12.5957 73.4051C18.6093 79.4186 26.2711 83.5138 34.6121 85.1729C42.9532 86.8319 51.5989 85.9804 59.456 82.7258C67.3131 79.4712 74.0286 73.9599 78.7534 66.8887C83.4782 59.8175 86.0001 51.504 86.0001 42.9995C86.0001 37.3527 84.8878 31.7611 82.7268 26.5441C80.5658 21.3271 77.3984 16.5868 73.4055 12.5939C69.4125 8.60103 64.6721 5.43373 59.4551 3.27286C54.238 1.11199 48.6464 -0.000128848 42.9996 1.11967e-08ZM42.9996 77.3995C36.1959 77.3995 29.545 75.382 23.888 71.6021C18.2309 67.8222 13.8218 62.4496 11.2181 56.1638C8.61447 49.8781 7.93324 42.9614 9.26057 36.2884C10.5879 29.6155 13.8642 23.486 18.6751 18.675C23.486 13.8641 29.6155 10.5878 36.2885 9.2605C42.9614 7.93317 49.8781 8.6144 56.1639 11.2181C62.4497 13.8217 67.8222 18.2308 71.6021 23.8879C75.3821 29.5449 77.3996 36.1958 77.3996 42.9995C77.3996 52.123 73.7753 60.8727 67.3241 67.324C60.8728 73.7752 52.123 77.3995 42.9996 77.3995Z" fill="white"/>
<path id="Path 7198" d="M60.1995 38.6998H47.2992V25.7995C47.2992 24.6591 46.8462 23.5655 46.0398 22.7591C45.2335 21.9528 44.1398 21.4998 42.9995 21.4998C41.8591 21.4998 40.7654 21.9528 39.9591 22.7591C39.1527 23.5655 38.6997 24.6591 38.6997 25.7995V42.9995C38.6997 44.1399 39.1527 45.2335 39.9591 46.0399C40.7654 46.8463 41.8591 47.2993 42.9995 47.2993H60.1995C61.3398 47.2993 62.4335 46.8463 63.2398 46.0399C64.0462 45.2335 64.4992 44.1399 64.4992 42.9995C64.4992 41.8591 64.0462 40.7655 63.2398 39.9591C62.4335 39.1528 61.3398 38.6998 60.1995 38.6998Z" fill="white"/>
</g>
</svg>
