<svg width="62" height="86" viewBox="0 0 62 86" fill="none" xmlns="http://www.w3.org/2000/svg">
<path id="Path 7199" d="M31 0C22.7787 0.00142508 14.8946 3.17312 9.08131 8.81766C3.268 14.4622 0.00146769 22.1174 0 30.1C0 52.675 31 86 31 86C31 86 62 52.675 62 30.1C61.9985 22.1174 58.732 14.4622 52.9187 8.81766C47.1054 3.17312 39.2213 0.00142508 31 0ZM31 40.85C28.8103 40.85 26.6697 40.2195 24.849 39.0383C23.0284 37.8571 21.6093 36.1782 20.7713 34.2138C19.9334 32.2495 19.7141 30.0881 20.1413 28.0028C20.5685 25.9175 21.6229 24.002 23.1713 22.4986C24.7197 20.9952 26.6924 19.9713 28.8401 19.5566C30.9877 19.1418 33.2138 19.3547 35.2369 20.1683C37.2599 20.9819 38.989 22.3598 40.2056 24.1276C41.4221 25.8955 42.0714 27.9739 42.0714 30.1C42.0714 31.5117 41.7851 32.9096 41.2287 34.2138C40.6723 35.5181 39.8568 36.7032 38.8287 37.7014C37.8006 38.6996 36.5801 39.4915 35.2369 40.0317C33.8936 40.5719 32.4539 40.85 31 40.85Z" fill="white"/>
</svg>
