<svg width="83" height="83" viewBox="0 0 83 83" fill="none" xmlns="http://www.w3.org/2000/svg">
<path id="Path 7196" d="M50.5703 17.8032C54.1786 18.5059 57.4948 20.2675 60.0944 22.8625C62.694 25.4574 64.4587 28.7677 65.1628 32.3696M50.5703 3.05212C58.0672 3.88353 65.058 7.23479 70.395 12.5556C75.732 17.8765 79.098 24.8507 79.9402 32.3331M76.2458 61.7611V72.8244C76.25 73.8515 76.0392 74.8681 75.627 75.8092C75.2148 76.7503 74.6102 77.5951 73.852 78.2894C73.0938 78.9837 72.1986 79.5123 71.2239 79.8413C70.2492 80.1703 69.2163 80.2924 68.1916 80.1999C56.8249 78.9664 45.9065 75.089 36.3134 68.8791C27.386 63.2175 19.817 55.6631 14.144 46.7525C7.90028 37.132 4.01462 26.1786 2.80177 14.7798C2.70936 13.7599 2.83072 12.732 3.15812 11.7615C3.48552 10.7911 4.01178 9.89926 4.7034 9.14295C5.39501 8.38664 6.23683 7.78238 7.17523 7.36865C8.11364 6.95492 9.12807 6.74079 10.1539 6.73988H21.237C23.0299 6.72227 24.768 7.35604 26.1274 8.52307C27.4869 9.69009 28.3748 11.3107 28.6257 13.0829C29.0934 16.6233 29.9609 20.0996 31.2115 23.4453C31.7087 24.7652 31.8165 26.1996 31.5221 27.5787C31.2277 28.9578 30.5434 30.2238 29.5504 31.2266L24.8582 35.9103C30.1171 45.1427 37.7747 52.787 47.0232 58.0369L51.7154 53.3498C52.72 52.3585 53.9882 51.6755 55.3698 51.3816C56.7513 51.0877 58.1883 51.1953 59.5105 51.6916C62.8622 52.94 66.3447 53.8059 69.8915 54.2728C71.686 54.5255 73.325 55.4278 74.4966 56.8081C75.6682 58.1884 76.2908 59.9503 76.2458 61.7589V61.7611Z" stroke="white" stroke-width="5" stroke-linecap="round" stroke-linejoin="round"/>
</svg>
